<svg xmlns="http://www.w3.org/2000/svg" width="720" height="720" viewBox="0 0 720 720" font-family="Helvetica,Arial,sans-serif">
<rect width="720" height="720" fill="white"/>
<text x="360.0" y="24" text-anchor="middle" font-size="14">Parity on wound.rda (21,557 cells, 1,568 L-R pairs)</text>
<rect x="74" y="74" width="572" height="572" fill="#fbfbfb" stroke="#333" stroke-width="1"/>
<rect x="74.00" y="77.57" width="3.58" height="-3.57" fill="rgba(31,119,180,0.900)"/>
<rect x="638.85" y="642.42" width="3.58" height="-3.57" fill="rgba(31,119,180,0.455)"/>
<rect x="642.43" y="646.00" width="3.57" height="-3.58" fill="rgba(31,119,180,0.692)"/>
<line x1="74" y1="646" x2="646" y2="74" stroke="#111" stroke-width="1.2" stroke-dasharray="7,5"/>
<text x="74.0" y="664" text-anchor="middle" font-size="10">1e-308</text>
<text x="66" y="649.0" text-anchor="end" font-size="10">1e-308</text>
<text x="81.4" y="664" text-anchor="middle" font-size="10">1e-304</text>
<text x="66" y="641.6" text-anchor="end" font-size="10">1e-304</text>
<text x="88.9" y="664" text-anchor="middle" font-size="10">1e-300</text>
<text x="66" y="634.1" text-anchor="end" font-size="10">1e-300</text>
<text x="96.3" y="664" text-anchor="middle" font-size="10">1e-296</text>
<text x="66" y="626.7" text-anchor="end" font-size="10">1e-296</text>
<text x="103.7" y="664" text-anchor="middle" font-size="10">1e-292</text>
<text x="66" y="619.3" text-anchor="end" font-size="10">1e-292</text>
<text x="111.1" y="664" text-anchor="middle" font-size="10">1e-288</text>
<text x="66" y="611.9" text-anchor="end" font-size="10">1e-288</text>
<text x="118.6" y="664" text-anchor="middle" font-size="10">1e-284</text>
<text x="66" y="604.4" text-anchor="end" font-size="10">1e-284</text>
<text x="126.0" y="664" text-anchor="middle" font-size="10">1e-280</text>
<text x="66" y="597.0" text-anchor="end" font-size="10">1e-280</text>
<text x="133.4" y="664" text-anchor="middle" font-size="10">1e-276</text>
<text x="66" y="589.6" text-anchor="end" font-size="10">1e-276</text>
<text x="140.9" y="664" text-anchor="middle" font-size="10">1e-272</text>
<text x="66" y="582.1" text-anchor="end" font-size="10">1e-272</text>
<text x="148.3" y="664" text-anchor="middle" font-size="10">1e-268</text>
<text x="66" y="574.7" text-anchor="end" font-size="10">1e-268</text>
<text x="155.7" y="664" text-anchor="middle" font-size="10">1e-264</text>
<text x="66" y="567.3" text-anchor="end" font-size="10">1e-264</text>
<text x="163.1" y="664" text-anchor="middle" font-size="10">1e-260</text>
<text x="66" y="559.9" text-anchor="end" font-size="10">1e-260</text>
<text x="170.6" y="664" text-anchor="middle" font-size="10">1e-256</text>
<text x="66" y="552.4" text-anchor="end" font-size="10">1e-256</text>
<text x="178.0" y="664" text-anchor="middle" font-size="10">1e-252</text>
<text x="66" y="545.0" text-anchor="end" font-size="10">1e-252</text>
<text x="185.4" y="664" text-anchor="middle" font-size="10">1e-248</text>
<text x="66" y="537.6" text-anchor="end" font-size="10">1e-248</text>
<text x="192.9" y="664" text-anchor="middle" font-size="10">1e-244</text>
<text x="66" y="530.1" text-anchor="end" font-size="10">1e-244</text>
<text x="200.3" y="664" text-anchor="middle" font-size="10">1e-240</text>
<text x="66" y="522.7" text-anchor="end" font-size="10">1e-240</text>
<text x="207.7" y="664" text-anchor="middle" font-size="10">1e-236</text>
<text x="66" y="515.3" text-anchor="end" font-size="10">1e-236</text>
<text x="215.1" y="664" text-anchor="middle" font-size="10">1e-232</text>
<text x="66" y="507.9" text-anchor="end" font-size="10">1e-232</text>
<text x="222.6" y="664" text-anchor="middle" font-size="10">1e-228</text>
<text x="66" y="500.4" text-anchor="end" font-size="10">1e-228</text>
<text x="230.0" y="664" text-anchor="middle" font-size="10">1e-224</text>
<text x="66" y="493.0" text-anchor="end" font-size="10">1e-224</text>
<text x="237.4" y="664" text-anchor="middle" font-size="10">1e-220</text>
<text x="66" y="485.6" text-anchor="end" font-size="10">1e-220</text>
<text x="244.9" y="664" text-anchor="middle" font-size="10">1e-216</text>
<text x="66" y="478.1" text-anchor="end" font-size="10">1e-216</text>
<text x="252.3" y="664" text-anchor="middle" font-size="10">1e-212</text>
<text x="66" y="470.7" text-anchor="end" font-size="10">1e-212</text>
<text x="259.7" y="664" text-anchor="middle" font-size="10">1e-208</text>
<text x="66" y="463.3" text-anchor="end" font-size="10">1e-208</text>
<text x="267.1" y="664" text-anchor="middle" font-size="10">1e-204</text>
<text x="66" y="455.9" text-anchor="end" font-size="10">1e-204</text>
<text x="274.6" y="664" text-anchor="middle" font-size="10">1e-200</text>
<text x="66" y="448.4" text-anchor="end" font-size="10">1e-200</text>
<text x="282.0" y="664" text-anchor="middle" font-size="10">1e-196</text>
<text x="66" y="441.0" text-anchor="end" font-size="10">1e-196</text>
<text x="289.4" y="664" text-anchor="middle" font-size="10">1e-192</text>
<text x="66" y="433.6" text-anchor="end" font-size="10">1e-192</text>
<text x="296.9" y="664" text-anchor="middle" font-size="10">1e-188</text>
<text x="66" y="426.1" text-anchor="end" font-size="10">1e-188</text>
<text x="304.3" y="664" text-anchor="middle" font-size="10">1e-184</text>
<text x="66" y="418.7" text-anchor="end" font-size="10">1e-184</text>
<text x="311.7" y="664" text-anchor="middle" font-size="10">1e-180</text>
<text x="66" y="411.3" text-anchor="end" font-size="10">1e-180</text>
<text x="319.1" y="664" text-anchor="middle" font-size="10">1e-176</text>
<text x="66" y="403.9" text-anchor="end" font-size="10">1e-176</text>
<text x="326.6" y="664" text-anchor="middle" font-size="10">1e-172</text>
<text x="66" y="396.4" text-anchor="end" font-size="10">1e-172</text>
<text x="334.0" y="664" text-anchor="middle" font-size="10">1e-168</text>
<text x="66" y="389.0" text-anchor="end" font-size="10">1e-168</text>
<text x="341.4" y="664" text-anchor="middle" font-size="10">1e-164</text>
<text x="66" y="381.6" text-anchor="end" font-size="10">1e-164</text>
<text x="348.9" y="664" text-anchor="middle" font-size="10">1e-160</text>
<text x="66" y="374.1" text-anchor="end" font-size="10">1e-160</text>
<text x="356.3" y="664" text-anchor="middle" font-size="10">1e-156</text>
<text x="66" y="366.7" text-anchor="end" font-size="10">1e-156</text>
<text x="363.7" y="664" text-anchor="middle" font-size="10">1e-152</text>
<text x="66" y="359.3" text-anchor="end" font-size="10">1e-152</text>
<text x="371.1" y="664" text-anchor="middle" font-size="10">1e-148</text>
<text x="66" y="351.9" text-anchor="end" font-size="10">1e-148</text>
<text x="378.6" y="664" text-anchor="middle" font-size="10">1e-144</text>
<text x="66" y="344.4" text-anchor="end" font-size="10">1e-144</text>
<text x="386.0" y="664" text-anchor="middle" font-size="10">1e-140</text>
<text x="66" y="337.0" text-anchor="end" font-size="10">1e-140</text>
<text x="393.4" y="664" text-anchor="middle" font-size="10">1e-136</text>
<text x="66" y="329.6" text-anchor="end" font-size="10">1e-136</text>
<text x="400.9" y="664" text-anchor="middle" font-size="10">1e-132</text>
<text x="66" y="322.1" text-anchor="end" font-size="10">1e-132</text>
<text x="408.3" y="664" text-anchor="middle" font-size="10">1e-128</text>
<text x="66" y="314.7" text-anchor="end" font-size="10">1e-128</text>
<text x="415.7" y="664" text-anchor="middle" font-size="10">1e-124</text>
<text x="66" y="307.3" text-anchor="end" font-size="10">1e-124</text>
<text x="423.1" y="664" text-anchor="middle" font-size="10">1e-120</text>
<text x="66" y="299.9" text-anchor="end" font-size="10">1e-120</text>
<text x="430.6" y="664" text-anchor="middle" font-size="10">1e-116</text>
<text x="66" y="292.4" text-anchor="end" font-size="10">1e-116</text>
<text x="438.0" y="664" text-anchor="middle" font-size="10">1e-112</text>
<text x="66" y="285.0" text-anchor="end" font-size="10">1e-112</text>
<text x="445.4" y="664" text-anchor="middle" font-size="10">1e-108</text>
<text x="66" y="277.6" text-anchor="end" font-size="10">1e-108</text>
<text x="452.9" y="664" text-anchor="middle" font-size="10">1e-104</text>
<text x="66" y="270.1" text-anchor="end" font-size="10">1e-104</text>
<text x="460.3" y="664" text-anchor="middle" font-size="10">1e-100</text>
<text x="66" y="262.7" text-anchor="end" font-size="10">1e-100</text>
<text x="467.7" y="664" text-anchor="middle" font-size="10">1e-96</text>
<text x="66" y="255.3" text-anchor="end" font-size="10">1e-96</text>
<text x="475.1" y="664" text-anchor="middle" font-size="10">1e-92</text>
<text x="66" y="247.9" text-anchor="end" font-size="10">1e-92</text>
<text x="482.6" y="664" text-anchor="middle" font-size="10">1e-88</text>
<text x="66" y="240.4" text-anchor="end" font-size="10">1e-88</text>
<text x="490.0" y="664" text-anchor="middle" font-size="10">1e-84</text>
<text x="66" y="233.0" text-anchor="end" font-size="10">1e-84</text>
<text x="497.4" y="664" text-anchor="middle" font-size="10">1e-80</text>
<text x="66" y="225.6" text-anchor="end" font-size="10">1e-80</text>
<text x="504.9" y="664" text-anchor="middle" font-size="10">1e-76</text>
<text x="66" y="218.1" text-anchor="end" font-size="10">1e-76</text>
<text x="512.3" y="664" text-anchor="middle" font-size="10">1e-72</text>
<text x="66" y="210.7" text-anchor="end" font-size="10">1e-72</text>
<text x="519.7" y="664" text-anchor="middle" font-size="10">1e-68</text>
<text x="66" y="203.3" text-anchor="end" font-size="10">1e-68</text>
<text x="527.1" y="664" text-anchor="middle" font-size="10">1e-64</text>
<text x="66" y="195.9" text-anchor="end" font-size="10">1e-64</text>
<text x="534.6" y="664" text-anchor="middle" font-size="10">1e-60</text>
<text x="66" y="188.4" text-anchor="end" font-size="10">1e-60</text>
<text x="542.0" y="664" text-anchor="middle" font-size="10">1e-56</text>
<text x="66" y="181.0" text-anchor="end" font-size="10">1e-56</text>
<text x="549.4" y="664" text-anchor="middle" font-size="10">1e-52</text>
<text x="66" y="173.6" text-anchor="end" font-size="10">1e-52</text>
<text x="556.9" y="664" text-anchor="middle" font-size="10">1e-48</text>
<text x="66" y="166.1" text-anchor="end" font-size="10">1e-48</text>
<text x="564.3" y="664" text-anchor="middle" font-size="10">1e-44</text>
<text x="66" y="158.7" text-anchor="end" font-size="10">1e-44</text>
<text x="571.7" y="664" text-anchor="middle" font-size="10">1e-40</text>
<text x="66" y="151.3" text-anchor="end" font-size="10">1e-40</text>
<text x="579.1" y="664" text-anchor="middle" font-size="10">1e-36</text>
<text x="66" y="143.9" text-anchor="end" font-size="10">1e-36</text>
<text x="586.6" y="664" text-anchor="middle" font-size="10">1e-32</text>
<text x="66" y="136.4" text-anchor="end" font-size="10">1e-32</text>
<text x="594.0" y="664" text-anchor="middle" font-size="10">1e-28</text>
<text x="66" y="129.0" text-anchor="end" font-size="10">1e-28</text>
<text x="601.4" y="664" text-anchor="middle" font-size="10">1e-24</text>
<text x="66" y="121.6" text-anchor="end" font-size="10">1e-24</text>
<text x="608.9" y="664" text-anchor="middle" font-size="10">1e-20</text>
<text x="66" y="114.1" text-anchor="end" font-size="10">1e-20</text>
<text x="616.3" y="664" text-anchor="middle" font-size="10">1e-16</text>
<text x="66" y="106.7" text-anchor="end" font-size="10">1e-16</text>
<text x="623.7" y="664" text-anchor="middle" font-size="10">1e-12</text>
<text x="66" y="99.3" text-anchor="end" font-size="10">1e-12</text>
<text x="631.1" y="664" text-anchor="middle" font-size="10">1e-8</text>
<text x="66" y="91.9" text-anchor="end" font-size="10">1e-8</text>
<text x="638.6" y="664" text-anchor="middle" font-size="10">1e-4</text>
<text x="66" y="84.4" text-anchor="end" font-size="10">1e-4</text>
<text x="646.0" y="664" text-anchor="middle" font-size="10">1e0</text>
<text x="66" y="77.0" text-anchor="end" font-size="10">1e0</text>
<text x="360.0" y="708" text-anchor="middle" font-size="12">upstream computeCommunProb Prob</text>
<text x="16" y="360.0" text-anchor="middle" font-size="12" transform="rotate(-90 16 360.0)">Rust kernel Prob</text>
<text x="360.0" y="690" text-anchor="middle" font-size="10" fill="#444">980,000 values, 160x160 bins, density by log count | max |log10 difference| = 0 | 0 off the identity</text>
</svg>